Simulation
nRows=20
nColumns=15
endheader
time  TH_x TH_y TH_z SC_y  SC_z  SC_x  AC_y  AC_z  AC_x  GH_y  GH_z  GH_yy  EL_x  PS_y
5.745  0.000000  0.000000  0.000000  -39.94970350289157  33.74250418415755  -8.805967410722097  27.81010034702381  -7.289229693299062  38.308224378927584  11.566808865079512  64.66154618818767  25.260009026584562  22.057940895959852  120.000000
5.80245  0.000000  0.000000  0.000000  -33.5641459358607  28.270522549016054  4.0582077000677375  27.454747023675676  -7.351025053675722  37.36405613171736  -11.490966496711989  46.18648619870439  52.35514898776167  14.91177759764797  120.000000
5.8599  0.000000  0.000000  0.000000  -22.732224872002337  11.37472040747247  -16.03200955201962  34.01360264810036  -4.373400742418772  39.14038871238544  33.204584942919396  62.1184227203314  -7.6833521469932  15.516702632167352  120.000000
5.91735  0.000000  0.000000  0.000000  -32.874255141425856  26.536703146203408  9.458496071910096  29.789752753623567  -6.415668733502153  39.01979495311745  16.94864724481335  43.33554608764771  -14.730584811867427  24.919109967663392  120.000000
5.9748  0.000000  0.000000  0.000000  -56.009075774267544  26.618199242183426  39.20972880168428  53.58372035662508  22.150984374749385  8.90917153753804  10.47522153150064  33.52068814491009  -19.883320145823188  24.7325036461225  120.000000
6.03225  0.000000  0.000000  0.000000  -37.568045875596795  -1.0252647224067124  -18.189610094096587  57.500453075142296  16.043445513562713  21.56974065159174  46.65135092177514  34.280248070906765  -3.8734568516811185  13.955762289511194  120.000000
6.089700000000001  0.000000  0.000000  0.000000  -30.412177195415904  -16.24743190897429  -7.728947589138012  53.6872667043654  -12.628701229230373  -4.771526753931719  43.36479198792466  41.63900674889235  -26.991518879011753  14.942508066788289  120.000000
6.14715  0.000000  0.000000  0.000000  -44.571033617265954  -12.146774540166241  15.085757211867787  54.341216101370534  5.182104394935564  -19.95051747340621  4.850033577233674  30.469892549537235  -2.288423875703779  18.294851616262683  120.000000
6.2046  0.000000  0.000000  0.000000  -50.675928472890114  5.832991725573568  -1.4911700750643337  46.16974199020462  14.593204148310775  4.084487926445621  35.18830106765133  18.171217729209864  -31.16508948114862  19.229646505481462  120.000000
6.26205  0.000000  0.000000  0.000000  -67.0860036201381  18.297639364452895  14.643934894541681  57.666742039014494  -11.218885655164522  0.013785448537970276  24.200063821201123  42.23852875806282  -40.07659212386576  18.255847690002042  120.000000
6.3195  0.000000  0.000000  0.000000  -61.7476778262109  10.876494332660334  31.855804413065854  50.64724402234436  -3.0612786994429775  9.833164449010761  57.16104752404572  6.964087419443013  -53.27260246085242  28.616042559109538  120.000000
6.37695  0.000000  0.000000  0.000000  -37.6310332289911  2.2789316524152095  7.682823502898821  65.3767529028989  7.509912054422656  -3.178177268680176  33.148375778633834  23.20715055271002  -41.324800148409665  24.93078860578005  120.000000
6.4344  0.000000  0.000000  0.000000  -38.017293774334796  -6.0589608820293765  -10.181716006968786  41.583245609340764  11.565508899425055  5.111085559063001  4.5269098824569785  30.517227482943934  -1.084735950101558  24.121548666125836  120.000000
6.49185  0.000000  0.000000  0.000000  -51.26620517615732  -2.0491469379497085  -16.144698919716266  49.657288647547794  6.817906738846592  -4.40991777391285  28.114779020033883  50.252028990852786  -40.46025878282283  22.10855652865719  120.000000
6.549300000000001  0.000000  0.000000  0.000000  -58.70650090054866  7.73162710800579  19.741644446284404  54.974952272278934  -6.597170542316597  4.827038448167258  16.912309218430355  18.282167024698058  -19.704489784795705  27.600663228976043  120.000000
6.60675  0.000000  0.000000  0.000000  -54.3322399081676  10.258259482072132  11.576863117191397  57.97802667103283  3.096319790007335  4.974172230551571  7.864818856597745  17.589770025076646  -16.254576365650824  24.948368105741654  120.000000
6.6642  0.000000  0.000000  0.000000  -51.24291219821726  1.340015264810181  -9.206104059581385  51.03009505828297  8.548824476202833  8.288501860214962  -2.9584883097637658  38.577068095863225  -1.1375581795135923  25.423330364455182  120.000000
6.72165  0.000000  0.000000  0.000000  -47.258404946307834  -2.1467515818733838  -8.135625731782826  49.068831651921464  6.803232083708912  -1.1835110940448077  11.27387266443457  38.3437865529166  -18.68954572391251  23.624328352258342  120.000000
6.7791  0.000000  0.000000  0.000000  -38.88758264663976  -2.3348507970437686  -6.89128132276825  48.03624359588003  -2.6503056749839433  3.576384535741334  -5.76365629502294  44.31758926795826  -3.350046706851546  25.020449157553013  120.000000
6.83655  0.000000  0.000000  0.000000  -39.251269744171076  -5.88418554055428  -5.948439987723965  54.47361868644267  -1.3231412012049142  2.1877088069642303  -8.740263471179118  45.190431054132134  0.27517614801515305  23.071043505021617  120.000000
